<mxfile host="app.diagrams.net" modified="2024-06-16T17:59:56.190Z" agent="Mozilla/5.0 (Windows NT 10.0; Win64; x64) AppleWebKit/537.36 (KHTML, like Gecko) Chrome/125.0.0.0 Safari/537.36" version="24.4.0" etag="_bVf5o00y3xECmyACl9m" type="github">
  <diagram name="Page-1" id="41G3yi8gJ7dupHkZY7pO">
    <mxGraphModel>
      <root>
        <mxCell id="0" />
        <mxCell id="1" parent="0" />
      </root>
    </mxGraphModel>
  </diagram>
</mxfile>
